<?xml version="1.0" encoding="UTF-8" standalone="no"?>
<svg
   xmlns:dc="http://purl.org/dc/elements/1.1/"
   xmlns:cc="http://creativecommons.org/ns#"
   xmlns:rdf="http://www.w3.org/1999/02/22-rdf-syntax-ns#"
   xmlns:svg="http://www.w3.org/2000/svg"
   xmlns="http://www.w3.org/2000/svg"
   style="fill:none"
   id="svg1414"
   version="1.1"
   viewBox="0 0 500 500"
   height="500"
   width="500">
  <metadata
     id="metadata1420">
    <rdf:RDF>
      <cc:Work
         rdf:about="">
        <dc:format>image/svg+xml</dc:format>
        <dc:type
           rdf:resource="http://purl.org/dc/dcmitype/StillImage" />
        <dc:title></dc:title>
      </cc:Work>
    </rdf:RDF>
  </metadata>
  <defs
     id="defs1418" />
  <path
     style="fill:#000000;stroke-width:20.83333397"
     id="path1412"
     d="m 250,187.5 c -16.575,0 -32.47292,6.58479 -44.19417,18.30583 C 194.08479,217.52708 187.5,233.425 187.5,250 c 0,16.575 6.58479,32.47292 18.30583,44.19375 C 217.52708,305.91458 233.425,312.5 250,312.5 c 16.575,0 32.47292,-6.58542 44.19375,-18.30625 C 305.91459,282.47292 312.5,266.575 312.5,250 c 0,-16.575 -6.58541,-32.47292 -18.30625,-44.19417 C 282.47292,194.08479 266.575,187.5 250,187.5 Z m 0,-41.66667 c 27.62708,0 54.12292,10.97458 73.65625,30.50979 19.53542,19.535 30.51042,46.0298 30.51042,73.65688 0,27.62708 -10.975,54.12292 -30.51042,73.65625 -19.53333,19.53542 -46.02917,30.51042 -73.65625,30.51042 -27.62708,0 -54.12188,-10.975 -73.65688,-30.51042 C 156.80791,304.12292 145.83333,277.62708 145.83333,250 c 0,-27.62708 10.97458,-54.12188 30.50979,-73.65688 19.535,-19.53521 46.0298,-30.50979 73.65688,-30.50979 z M 385.41667,140.625 c 0,6.90666 -2.74375,13.53041 -7.62708,18.41416 -4.88333,4.88375 -11.50834,7.6275 -18.41459,7.6275 -6.90625,0 -13.53125,-2.74375 -18.41458,-7.6275 -4.88333,-4.88375 -7.62708,-11.5075 -7.62708,-18.41416 0,-6.90667 2.74375,-13.53042 7.62708,-18.41417 4.88333,-4.88375 11.50833,-7.6275 18.41458,-7.6275 6.90625,0 13.53126,2.74375 18.41459,7.6275 4.88333,4.88375 7.62708,11.5075 7.62708,18.41417 z M 250,83.33333 c -51.54167,0 -59.95834,0.14583 -83.9375,1.20833 -16.33334,0.77083 -27.29167,2.95833 -37.45834,6.91667 -9.04166,3.5 -15.5625,7.6875 -22.5,14.64583 -6.520624,6.3 -11.534374,13.99125 -14.666666,22.5 -3.958333,10.20834 -6.145833,21.14584 -6.895833,37.45834 -1.083334,23 -1.208334,31.04166 -1.208334,83.9375 0,51.54167 0.145834,59.95834 1.208334,83.9375 0.770833,16.3125 2.958333,27.29167 6.895833,37.4375 3.541667,9.0625 7.708334,15.58334 14.625006,22.5 7.02083,7 13.54166,11.1875 22.5,14.64584 10.29166,3.97917 21.25,6.1875 37.5,6.9375 23,1.08333 31.04167,1.20833 83.9375,1.20833 51.54167,0 59.95834,-0.14583 83.9375,-1.20833 16.29167,-0.77083 27.27084,-2.95833 37.43751,-6.89583 9.02083,-3.52084 15.58333,-7.70834 22.5,-14.62501 7.02083,-7.02083 11.20833,-13.54166 14.66666,-22.5 3.95834,-10.27083 6.16667,-21.25 6.91667,-37.5 1.08333,-23 1.20833,-31.04167 1.20833,-83.9375 0,-51.54167 -0.14583,-59.95834 -1.20833,-83.9375 -0.77083,-16.29167 -2.95833,-27.29167 -6.91667,-37.45834 -3.13958,-8.5 -8.14375,-16.18833 -14.64583,-22.5 -6.29792,-6.52396 -13.98958,-11.53812 -22.5,-14.66667 -10.20834,-3.95833 -21.16667,-6.14583 -37.45834,-6.89583 -23,-1.08333 -31.04166,-1.20833 -83.9375,-1.20833 z m 0,-41.66667 c 56.60417,0 63.66667,0.20833 85.875,1.25 22.1875,1.04167 37.29167,4.52083 50.58334,9.6875 13.75,5.29167 25.33333,12.45833 36.91667,24.02083 10.59375,10.41459 18.79166,23.0123 24.02083,36.91667 5.14583,13.27083 8.64583,28.39584 9.6875,50.58334 0.97917,22.20833 1.25,29.27083 1.25,85.875 0,56.60417 -0.20833,63.66667 -1.25,85.875 -1.04167,22.1875 -4.54167,37.29167 -9.6875,50.58334 -5.21458,13.9125 -13.41458,26.5125 -24.02083,36.91667 -10.41667,10.58958 -23.01459,18.7875 -36.91667,24.02083 -13.27083,5.14583 -28.39584,8.64583 -50.58334,9.6875 -22.20833,0.97917 -29.27083,1.25 -85.875,1.25 -56.60417,0 -63.66667,-0.20833 -85.875,-1.25 -22.1875,-1.04167 -37.29167,-4.54167 -50.58334,-9.6875 C 99.63187,442.17709 87.031869,433.97709 76.624994,423.37501 66.029368,412.96251 57.831868,400.36459 52.60416,386.45834 47.437493,373.1875 43.958326,358.0625 42.916659,335.875 c -0.979166,-22.20833 -1.25,-29.27083 -1.25,-85.875 0,-56.60417 0.208334,-63.66667 1.25,-85.875 1.041667,-22.20834 4.520834,-37.29167 9.687501,-50.58334 C 57.817493,99.62874 66.01666,87.02749 76.624994,76.62499 87.034786,66.02562 99.633953,57.8277 113.54166,52.60416 c 13.29167,-5.16667 28.375,-8.64583 50.58334,-9.6875 22.20833,-0.97917 29.27083,-1.25 85.875,-1.25 z" />
</svg>
