<?xml version="1.0" encoding="UTF-8" standalone="no"?>
<svg
   xmlns:dc="http://purl.org/dc/elements/1.1/"
   xmlns:cc="http://creativecommons.org/ns#"
   xmlns:rdf="http://www.w3.org/1999/02/22-rdf-syntax-ns#"
   xmlns:svg="http://www.w3.org/2000/svg"
   xmlns="http://www.w3.org/2000/svg"
   id="svg2554"
   version="1.1"
   fill="none"
   viewBox="0 0 500 500"
   height="500"
   width="500">
  <metadata
     id="metadata2558">
    <rdf:RDF>
      <cc:Work
         rdf:about="">
        <dc:format>image/svg+xml</dc:format>
        <dc:type
           rdf:resource="http://purl.org/dc/dcmitype/StillImage" />
        <dc:title></dc:title>
      </cc:Work>
    </rdf:RDF>
  </metadata>
  <path
     style="fill:#111111"
     id="path2545"
     d="m 500.634,104.375 c -18.477,8.203 -38.282,13.711 -59.102,16.211 21.25,-12.734 37.578,-32.8907 45.235,-56.8751 -19.844,11.7578 -41.915,20.3125 -65.313,24.9219 -18.75,-20 -45.469,-32.4609 -75.039,-32.4609 -56.797,0 -102.852,46.0151 -102.852,102.8121 0,8.047 0.938,15.899 2.696,23.438 C 160.79,178.125 85.0478,137.188 34.3057,74.9609 25.4385,90.1953 20.3994,107.852 20.3994,126.68 c 0,35.664 18.125,67.148 45.7422,85.625 -16.875,-0.547 -32.7344,-5.196 -46.6016,-12.891 0,0.43 0,0.859 0,1.289 0,49.844 35.4688,91.367 82.461,100.86 -8.5938,2.343 -17.6953,3.593 -27.0703,3.593 -6.6407,0 -13.086,-0.625 -19.375,-1.875 13.125,40.821 51.0933,70.625 96.0543,71.446 -35.156,27.578 -79.4918,43.984 -127.695,43.984 -8.3203,0 -16.48433,-0.469 -24.492148,-1.445 C 44.8916,446.484 98.9541,463.477 157.04,463.477 c 189.141,0 292.578,-156.68 292.578,-292.539 0,-4.454 -0.117,-8.946 -0.273,-13.321 20.078,-14.492 37.5,-32.617 51.289,-53.242 z" />
  <defs
     id="defs2552" />
</svg>
