<?xml version="1.0" encoding="UTF-8" standalone="no"?>
<svg
   xmlns:dc="http://purl.org/dc/elements/1.1/"
   xmlns:cc="http://creativecommons.org/ns#"
   xmlns:rdf="http://www.w3.org/1999/02/22-rdf-syntax-ns#"
   xmlns:svg="http://www.w3.org/2000/svg"
   xmlns="http://www.w3.org/2000/svg"
   style="fill:none"
   id="svg827"
   version="1.1"
   viewBox="0 0 500 500"
   height="500"
   width="500">
  <metadata
     id="metadata833">
    <rdf:RDF>
      <cc:Work
         rdf:about="">
        <dc:format>image/svg+xml</dc:format>
        <dc:type
           rdf:resource="http://purl.org/dc/dcmitype/StillImage" />
        <dc:title></dc:title>
      </cc:Work>
    </rdf:RDF>
  </metadata>
  <defs
     id="defs831" />
  <path
     style="clip-rule:evenodd;fill:#000000;fill-rule:evenodd;stroke-width:20.83333397"
     id="path825"
     d="m 448.73984,141.77625 c 2.93125,-9.86834 0,-16.77626 -13.67708,-16.77626 h -45.59167 c -11.725,0 -16.93542,6.25001 -19.86667,13.15792 0,0 -23.12083,57.23688 -56.0125,94.07959 -10.74583,10.85417 -15.30625,14.14375 -21.16875,14.14375 -2.92917,0 -7.16458,-3.28958 -7.16458,-13.15833 v -91.44667 c 0,-11.84209 -3.25626,-16.77626 -13.02501,-16.77626 h -71.64521 c -7.16458,0 -11.72375,5.59209 -11.72375,10.52626 0,11.18416 16.28292,13.81583 18.23688,44.73687 v 67.76396 c 0,14.8021 -2.60542,17.43334 -8.46708,17.43334 -15.30605,0 -53.08251,-57.23667 -75.2273,-123.02626 C 118.84795,130.26312 114.61441,125 102.89066,125 H 57.298575 c -13.026459,0 -15.631668,6.25001 -15.631668,13.15791 0,12.17104 15.306042,72.69834 71.970633,152.63167 C 151.41379,345.39375 204.49629,375 252.694,375 c 28.98333,0 32.56459,-6.57916 32.56459,-17.7625 v -41.4479 c 0,-13.15835 2.60625,-15.78959 12.05,-15.78959 6.83958,0 18.2375,3.28958 45.26666,29.60625 C 373.51276,360.85625 378.72317,375 395.98359,375 h 45.59167 c 13.02708,0 19.53958,-6.57916 15.63125,-19.40833 -4.23334,-12.82916 -18.8875,-31.57916 -38.42709,-53.94792 -10.74583,-12.82708 -26.70416,-26.31457 -31.2625,-33.22292 -6.83958,-8.88125 -4.88541,-12.82916 0,-20.39375 0,-0.32916 55.6875,-79.27708 61.22292,-106.25083 z" />
</svg>
