<svg id="logo" height="100%" viewBox="0 0 142 24" xmlns="http://www.w3.org/2000/svg">
<path fill-rule="evenodd" clip-rule="evenodd" d="M0.630859 11.9065V22.5625C0.630858 22.87 0.752724 23.1649 0.969761 23.3827C1.1868 23.6005 1.48131 23.7234 1.78877 23.7244H12.4488C12.611 23.7253 12.7697 23.6778 12.9048 23.588C13.0399 23.4981 13.1451 23.3701 13.207 23.2202C13.269 23.0703 13.2848 22.9053 13.2525 22.7463C13.2202 22.5874 13.1412 22.4416 13.0257 22.3278L2.02752 11.3256C1.91267 11.2118 1.76672 11.1345 1.60804 11.1034C1.44936 11.0723 1.28504 11.0889 1.13574 11.151C0.986452 11.2131 0.85886 11.318 0.769022 11.4524C0.679184 11.5868 0.631114 11.7448 0.630859 11.9065ZM18.3975 1.64844C18.5592 1.64978 18.7169 1.69868 18.8509 1.78902C18.985 1.87937 19.0895 2.00717 19.1515 2.15651C19.2134 2.30585 19.23 2.47011 19.1993 2.62883C19.1685 2.78754 19.0917 2.9337 18.9784 3.04908L14.9397 7.07989C14.8114 7.20578 14.71 7.35638 14.6416 7.52258C14.5732 7.68877 14.5393 7.86711 14.5418 8.04681V13.5857C14.5415 13.7474 14.4934 13.9054 14.4036 14.0398C14.3138 14.1743 14.1862 14.2791 14.0369 14.3412C13.8876 14.4033 13.7233 14.4199 13.5646 14.3888C13.4059 14.3578 13.2599 14.2805 13.1451 14.1666L2.02752 3.04908C1.91258 2.93467 1.83416 2.78874 1.80219 2.62976C1.77021 2.47077 1.78611 2.30587 1.84788 2.15592C1.90965 2.00597 2.01451 1.87772 2.14919 1.78738C2.28387 1.69705 2.44232 1.64869 2.60449 1.64844H18.3975ZM15.6997 23.7244H21.5609C21.8683 23.7234 22.1628 23.6005 22.3799 23.3827C22.5969 23.1649 22.7188 22.87 22.7188 22.5625V9.58672C22.7185 9.42503 22.6705 9.26702 22.5806 9.13258C22.4908 8.99814 22.3632 8.89328 22.2139 8.83118C22.0646 8.76908 21.9003 8.75252 21.7416 8.78359C21.5829 8.81466 21.437 8.89196 21.3221 9.00577L14.9556 15.3723C14.8278 15.4977 14.7267 15.6477 14.6583 15.8132C14.59 15.9786 14.5557 16.1562 14.5577 16.3353V22.5705C14.5597 22.8738 14.6803 23.1644 14.8937 23.38C15.1071 23.5956 15.3964 23.7192 15.6997 23.7244Z"/>
<path fill-rule="evenodd" clip-rule="evenodd" d="M141.991 18.9094C141.602 19.2218 141.153 19.4495 140.67 19.5779C140.134 19.7278 139.58 19.8028 139.023 19.8007C137.575 19.8007 136.453 19.4028 135.661 18.6627C134.869 17.9226 134.467 16.8005 134.467 15.3481V8.98155H132.08V8.39265L136.954 3.50632H137.575V6.52247H141.108V8.99349H137.575V15.2765C137.537 15.8081 137.705 16.3339 138.044 16.7448C138.221 16.9219 138.435 17.059 138.669 17.1469C138.904 17.2347 139.155 17.2713 139.405 17.2541C140.027 17.2761 140.638 17.0836 141.136 16.7089L141.999 18.9094H141.991ZM113.819 17.5445C114.542 17.5585 115.254 17.3756 115.881 17.0153C116.473 16.6746 116.924 16.1344 117.154 15.4913V13.9634H113.971C112.191 13.9634 111.301 14.5483 111.301 15.7182C111.294 15.9787 111.352 16.2369 111.468 16.47C111.585 16.7031 111.757 16.904 111.969 17.0551C112.518 17.4149 113.168 17.588 113.823 17.5485L113.819 17.5445ZM114.237 6.27179C116.182 6.27179 117.67 6.73734 118.702 7.66845C119.734 8.59956 120.247 10.0055 120.242 11.8863V19.6256H117.325V18.034C116.928 18.6261 116.365 19.0872 115.706 19.359C114.901 19.6826 114.038 19.8384 113.171 19.8166C112.28 19.8355 111.395 19.6618 110.577 19.3073C109.881 19.0105 109.285 18.522 108.858 17.8987C108.452 17.296 108.241 16.5836 108.253 15.8574C108.234 15.3116 108.344 14.7691 108.573 14.2735C108.803 13.7779 109.146 13.3432 109.574 13.0044C110.457 12.2882 111.846 11.9301 113.74 11.9301H117.15V11.7311C117.175 11.3374 117.114 10.943 116.971 10.5754C116.828 10.2077 116.607 9.87565 116.322 9.60229C115.773 9.10888 114.95 8.86218 113.863 8.86218C113.12 8.86244 112.382 8.97926 111.675 9.20836C111.013 9.41108 110.396 9.73788 109.856 10.1713L108.663 7.92312C109.413 7.36651 110.26 6.95491 111.161 6.70949C112.167 6.433 113.206 6.29905 114.249 6.31158L114.237 6.27179ZM90.0564 19.8007C88.9958 19.8007 87.9399 19.6588 86.9169 19.3789C86.0463 19.1677 85.2185 18.8083 84.4697 18.3165L85.6635 15.9688C86.3247 16.3926 87.0465 16.7133 87.8042 16.9198C88.6031 17.1539 89.4309 17.2744 90.2633 17.278C92.1202 17.278 93.0487 16.7912 93.0487 15.8176C93.0552 15.6016 92.9894 15.3896 92.8619 15.2152C92.7343 15.0408 92.5522 14.9139 92.3444 14.8547C91.6085 14.6074 90.8502 14.4328 90.0803 14.3334C89.1821 14.2078 88.2938 14.019 87.4222 13.7684C86.7418 13.5535 86.1289 13.1654 85.6436 12.6423C85.1118 12.0214 84.8421 11.2181 84.8915 10.4021C84.8787 9.81037 85.0157 9.22501 85.2898 8.70045C85.5639 8.1759 85.9662 7.72918 86.4593 7.40185C87.5045 6.65113 88.9184 6.27577 90.701 6.27577C91.6154 6.2774 92.5269 6.38016 93.4187 6.58216C94.199 6.74161 94.9495 7.02222 95.643 7.41379L94.4493 9.76145C93.3028 9.0935 91.9959 8.75094 90.6692 8.77066C89.9582 8.72627 89.2476 8.86318 88.604 9.16857C88.3964 9.26187 88.2198 9.41258 88.095 9.60293C87.9702 9.79328 87.9025 10.0153 87.8997 10.2429C87.8935 10.476 87.9636 10.7048 88.0994 10.8944C88.2351 11.084 88.4291 11.2241 88.6518 11.2934C89.4072 11.5704 90.1903 11.7652 90.9875 11.8743C91.8655 12.0046 92.7337 12.1948 93.5858 12.4434C94.251 12.6505 94.8514 13.0261 95.3287 13.5336C95.847 14.1343 96.1085 14.9145 96.0568 15.7062C96.0677 16.2958 95.9271 16.8784 95.6484 17.3981C95.3697 17.9179 94.9623 18.3574 94.4652 18.6746C93.4041 19.4147 91.9451 19.7861 90.0882 19.7888L90.0564 19.8007ZM78.6125 8.35285C79.5012 6.96813 81.0663 6.27577 83.3078 6.27577V9.21632C83.0717 9.17115 82.832 9.14718 82.5916 9.14469C82.0748 9.11463 81.5574 9.1925 81.0724 9.37336C80.5874 9.55422 80.1453 9.8341 79.7744 10.1952C79.098 10.8955 78.7597 11.9049 78.7597 13.2233V19.6256H75.6759V6.423H78.6205V8.35285H78.6125ZM66.5917 8.75076C65.6752 8.72554 64.7814 9.03857 64.0809 9.63014C63.3896 10.2272 62.9444 11.0594 62.8314 11.9659H70.3241C70.2221 11.0674 69.7895 10.2391 69.1105 9.64208C68.4123 9.03963 67.5133 8.7215 66.5917 8.75076ZM73.2646 13.1039C73.2646 13.3188 73.2646 13.6212 73.2169 14.0191H62.8712C63.0242 14.9468 63.5358 15.7772 64.2957 16.3309C65.1275 16.9202 66.1301 17.2194 67.1488 17.1825C67.8122 17.2037 68.4729 17.0874 69.0892 16.8408C69.7055 16.5943 70.2641 16.2229 70.7299 15.75L72.3892 17.652C71.7826 18.3617 71.0085 18.9087 70.1371 19.2436C69.0242 19.6525 67.8409 19.8345 66.6566 19.7792C65.4724 19.7238 64.3111 19.4322 63.2413 18.9213C62.1739 18.3795 61.2844 17.5425 60.6788 16.51C60.0698 15.4462 59.7591 14.2379 59.7795 13.0124C59.7609 11.7976 60.0629 10.5995 60.6549 9.53863C61.2249 8.52278 62.0687 7.68733 63.0901 7.1273C64.1672 6.54117 65.3776 6.24371 66.6036 6.26383C67.8068 6.24249 68.9947 6.53603 70.0495 7.11536C71.056 7.66823 71.8841 8.49636 72.437 9.50281C73.0235 10.6037 73.3168 11.837 73.2885 13.084L73.2646 13.1039ZM59.298 6.42697L54.0854 19.6296H50.9021L45.6895 6.42697H48.9046L52.5574 16.2195L56.3336 6.42697H59.298ZM42.4744 4.25041C41.9537 4.26521 41.448 4.0752 41.0658 3.72119C40.8861 3.5509 40.7429 3.34575 40.645 3.11828C40.5472 2.8908 40.4967 2.64577 40.4967 2.39815C40.4967 2.15052 40.5472 1.90549 40.645 1.67802C40.7429 1.45054 40.8861 1.2454 41.0658 1.0751C41.4473 0.719645 41.9532 0.528176 42.4744 0.541902C42.9916 0.526651 43.4952 0.708747 43.883 1.05123C44.0659 1.2084 44.2117 1.40405 44.3101 1.62418C44.4084 1.84431 44.4569 2.08347 44.452 2.32453C44.4571 2.57917 44.4103 2.83218 44.3146 3.06818C44.2188 3.30418 44.076 3.51823 43.895 3.69732C43.7084 3.88152 43.4862 4.02561 43.2419 4.12073C42.9976 4.21585 42.7364 4.25998 42.4744 4.25041ZM40.9186 6.42697H44.0064V19.6296H40.9186V6.423V6.42697ZM33.7125 8.35684C34.6011 6.97211 36.1662 6.27975 38.4078 6.27975V9.2203C38.1717 9.17513 37.932 9.15116 37.6916 9.14867C37.1748 9.11861 36.6574 9.19649 36.1724 9.37735C35.6873 9.5582 35.2453 9.83808 34.8744 10.1992C34.1979 10.8995 33.8597 11.9088 33.8597 13.2272V19.6296H30.7679V6.423H33.7125V8.35285V8.35684ZM106.649 18.9134C106.259 19.2263 105.808 19.454 105.324 19.5818C104.789 19.7322 104.236 19.8072 103.681 19.8047C102.232 19.8047 101.11 19.4068 100.318 18.6667C99.5266 17.9265 99.1247 16.8044 99.1247 15.3521V8.98553H96.7373V8.39265L101.612 3.52224H102.228V6.53839H105.766V9.00941H102.228V15.2765C102.188 15.8089 102.355 16.3362 102.694 16.7487C102.871 16.9256 103.083 17.0625 103.317 17.1504C103.551 17.2382 103.801 17.275 104.051 17.2581C104.673 17.28 105.284 17.0876 105.782 16.7129L106.649 18.9134ZM126.015 8.35684C126.907 6.97211 128.473 6.27975 130.715 6.27975V9.2203C130.479 9.17532 130.239 9.15135 129.998 9.14867C129.481 9.11854 128.963 9.19636 128.477 9.37721C127.992 9.55806 127.549 9.83797 127.177 10.1992C126.504 10.8995 126.167 11.9088 126.167 13.2272V19.6296H123.075V6.423H126.015V8.35684Z"/>
</svg>
