<svg width="86" height="57" viewBox="0 0 86 57" fill="none" xmlns="http://www.w3.org/2000/svg">
<path d="M84.4317 40.3175V1.61796C84.4317 0.82588 83.7903 0.184448 82.9988 0.184448H19.9321C19.1406 0.184448 18.4991 0.82588 18.4991 1.61796C18.4991 2.40951 19.1406 3.05095 19.9321 3.05095H29.9657V40.3175H28.5316V7.35148C28.5316 6.5594 27.8902 5.91744 27.0986 5.91744H11.3321C10.9148 5.91744 10.518 6.10011 10.2456 6.4161L0.212562 18.0884C-0.0110471 18.3482 -0.134399 18.6799 -0.134399 19.0227V47.4845C-0.134399 48.2761 0.507033 48.9175 1.29911 48.9175H4.59551C6.17022 54.2217 11.7463 57.2446 17.0504 55.6704C20.2975 54.7062 22.838 52.1656 23.8022 48.9175H54.7626C56.3368 54.2217 61.9129 57.2446 67.2165 55.6704C70.4646 54.7062 73.0051 52.1656 73.9688 48.9175H84.4328C85.2238 48.9175 85.8658 48.2761 85.8658 47.4845V41.7515C85.8658 40.9595 85.2238 40.3175 84.4317 40.3175ZM21.2565 47.2499C20.6019 51.1473 16.9103 53.776 13.0129 53.121C9.99414 52.6134 7.6326 50.2429 7.13656 47.2221C7.06675 46.8358 7.03158 46.4442 7.03263 46.051C7.03263 42.0933 10.2408 38.8845 14.1991 38.8845C18.1569 38.8845 21.3656 42.0933 21.3656 46.051C21.3656 46.4531 21.3294 46.8541 21.2565 47.2499ZM25.6657 41.7515V46.051H24.2321C24.2321 40.5101 19.7405 36.018 14.1986 36.018C8.65773 36.018 4.16508 40.5101 4.16508 46.051H2.7321V31.718H25.6651V41.7515H25.6657ZM25.6657 28.851H2.7321V19.5544L11.9903 8.78446H25.6657V28.851ZM54.7238 43.3016C54.6372 43.6018 54.58 43.9068 54.5217 44.2139C54.4944 44.3566 54.454 44.5005 54.4325 44.6569C54.3674 45.1188 54.3343 45.5844 54.3322 46.051H28.5327V43.1845H54.7495C54.7385 43.2229 54.7348 43.2633 54.7238 43.3016ZM71.4236 47.2499C70.768 51.1473 67.0774 53.776 63.1795 53.121C60.1613 52.6134 57.7992 50.2429 57.3037 47.2221C57.2334 46.8358 57.1982 46.4442 57.1992 46.051C57.1908 44.7907 57.5262 43.552 58.1693 42.468C60.1408 39.0457 64.5127 37.8688 67.9351 39.8409C69.0321 40.4724 69.9413 41.3841 70.5706 42.4822C71.2084 43.563 71.5412 44.7965 71.5328 46.051C71.5328 46.4531 71.496 46.8541 71.4236 47.2499ZM72.5915 40.3175C72.5416 40.2461 72.4813 40.1831 72.4293 40.1128C72.3217 39.9695 72.2088 39.8262 72.0944 39.6824C71.9396 39.495 71.7805 39.3134 71.6141 39.1365C71.4892 39.0063 71.3606 38.8803 71.2299 38.757C71.0535 38.5906 70.873 38.4347 70.6866 38.2825C70.5433 38.1696 70.4074 38.0573 70.2562 37.9528C70.0615 37.8095 69.861 37.6793 69.6562 37.5513C69.5129 37.4568 69.356 37.3623 69.2022 37.2767C68.987 37.1586 68.7718 37.0542 68.544 36.9524C68.386 36.8789 68.2311 36.8085 68.071 36.7387C67.8338 36.6442 67.5907 36.5666 67.3535 36.4904C67.1976 36.4406 67.0448 36.3849 66.8837 36.3477C66.6118 36.2758 66.332 36.2269 66.0528 36.1797C65.9163 36.155 65.7814 36.1209 65.6439 36.1041C64.7967 35.9892 63.9385 35.9892 63.0913 36.1041C62.948 36.1209 62.8131 36.1566 62.6729 36.1813C62.3958 36.2285 62.1213 36.2758 61.8515 36.3461C61.6866 36.3886 61.5286 36.4479 61.367 36.4978C61.1292 36.5739 60.893 36.6416 60.662 36.7403C60.4925 36.8075 60.3292 36.8836 60.1644 36.9634C59.9518 37.0626 59.7413 37.1618 59.5366 37.2746C59.3697 37.3665 59.2096 37.4683 59.0479 37.5612C58.8569 37.682 58.6705 37.8032 58.4873 37.9355C58.3278 38.0499 58.1745 38.1722 58.0228 38.2966C57.8706 38.4216 57.6874 38.5838 57.5268 38.7265C57.3661 38.8703 57.2402 39.0037 57.0969 39.148C56.9536 39.2929 56.7998 39.4766 56.6581 39.6467C56.5163 39.8173 56.4087 39.9511 56.2911 40.1096C56.2429 40.1784 56.1835 40.2388 56.1363 40.3081H32.8322V3.05095H81.5658V40.3175H72.5915ZM82.9988 46.051H74.3993C74.3977 45.5839 74.3636 45.1172 74.2974 44.6548C74.277 44.5115 74.2381 44.3687 74.2129 44.2249C74.1552 43.9115 74.0933 43.5971 74.0061 43.2921C73.9961 43.2543 73.9935 43.216 73.982 43.1782H82.9988V46.051Z" fill="#A6162F"/>
<path d="M5.59863 21.1485V24.5509C5.59863 25.343 6.24059 25.9844 7.03267 25.9844H21.3657C22.1578 25.9844 22.7992 25.343 22.7992 24.5509V13.0844C22.7992 12.2933 22.1578 11.6514 21.3657 11.6514H13.964C13.5467 11.6514 13.1494 11.833 12.8775 12.15L5.94612 20.2141C5.72199 20.474 5.59863 20.8052 5.59863 21.1485ZM8.46566 21.6844L14.6291 14.5179H19.9322V23.1179H8.46566V21.6844Z" fill="#A6162F"/>
<path d="M77.2657 5.91736H37.1321C36.3406 5.91736 35.6986 6.55984 35.6986 7.35139C35.6986 8.14294 36.3406 8.7849 37.1321 8.7849H77.2657C78.0567 8.7849 78.6987 8.14294 78.6987 7.35139C78.6987 6.55984 78.0567 5.91736 77.2657 5.91736Z" fill="#A6162F"/>
<path d="M77.2657 11.6514H37.1321C36.3406 11.6514 35.6986 12.2933 35.6986 13.0843C35.6986 13.8764 36.3406 14.5179 37.1321 14.5179H77.2657C78.0567 14.5179 78.6987 13.8764 78.6987 13.0843C78.6987 12.2933 78.0567 11.6514 77.2657 11.6514Z" fill="#A6162F"/>
<path d="M77.2657 17.3849H37.1321C36.3406 17.3849 35.6986 18.0263 35.6986 18.8179C35.6986 19.6094 36.3406 20.2514 37.1321 20.2514H77.2657C78.0567 20.2514 78.6987 19.6094 78.6987 18.8179C78.6987 18.0263 78.0567 17.3849 77.2657 17.3849Z" fill="#A6162F"/>
<path d="M14.1987 41.7515C11.824 41.7515 9.89917 43.6763 9.89917 46.0509C9.89917 48.4261 11.824 50.3509 14.1987 50.3509C16.5738 50.3509 18.4992 48.4261 18.4992 46.0509C18.4992 43.6763 16.5738 41.7515 14.1987 41.7515ZM14.1987 47.4844C13.4076 47.4844 12.7657 46.843 12.7657 46.0509C12.7657 45.2594 13.4076 44.618 14.1987 44.618C14.9907 44.618 15.6322 45.2594 15.6322 46.0509C15.6322 46.843 14.9907 47.4844 14.1987 47.4844Z" fill="#A6162F"/>
<path d="M64.3657 41.7515C61.9911 41.7515 60.0652 43.6763 60.0652 46.0509C60.0652 48.4261 61.9911 50.3509 64.3657 50.3509C66.7404 50.3509 68.6657 48.4261 68.6657 46.0509C68.6657 43.6763 66.7404 41.7515 64.3657 41.7515ZM64.3657 47.4844C63.5742 47.4844 62.9322 46.843 62.9322 46.0509C62.9322 45.2594 63.5742 44.618 64.3657 44.618C65.1578 44.618 65.7992 45.2594 65.7992 46.0509C65.7992 46.843 65.1578 47.4844 64.3657 47.4844Z" fill="#A6162F"/>
</svg>
