<?xml version="1.0" standalone="no"?>
<!DOCTYPE svg PUBLIC "-//W3C//DTD SVG 20010904//EN"
 "http://www.w3.org/TR/2001/REC-SVG-20010904/DTD/svg10.dtd">
<svg version="1.0" xmlns="http://www.w3.org/2000/svg"
 width="420.000000pt" height="420.000000pt" viewBox="0 0 420.000000 420.000000"
 preserveAspectRatio="xMidYMid meet">
<metadata>
Created by potrace 1.14, written by Peter Selinger 2001-2017
</metadata>
<g transform="translate(0.000000,420.000000) scale(0.100000,-0.100000)"
fill="#000000" stroke="none">
<path d="M679 3727 c-39 -26 -64 -84 -55 -124 5 -19 272 -293 859 -881 469
-469 860 -858 871 -864 27 -15 79 -12 113 6 62 32 63 37 63 530 0 381 2 452
16 484 10 25 125 148 343 367 212 213 331 339 335 357 10 42 -15 99 -53 125
l-34 23 -1212 0 -1212 0 -34 -23z"/>
<path d="M3585 2676 c-47 -22 -1021 -1004 -1040 -1048 -13 -32 -15 -110 -15
-535 0 -462 2 -501 19 -538 22 -48 44 -69 94 -90 55 -23 939 -23 994 0 48 20
71 41 94 87 18 36 19 76 19 1040 0 976 -1 1004 -20 1035 -31 52 -93 72 -145
49z"/>
<path d="M509 2317 c-18 -12 -39 -34 -46 -47 -10 -19 -13 -211 -13 -853 0
-793 1 -829 19 -865 23 -46 46 -67 94 -87 32 -13 141 -15 854 -15 919 0 869
-4 907 73 40 83 89 28 -832 950 -460 461 -849 845 -864 853 -39 20 -80 17
-119 -9z"/>
</g>
</svg>
